<svg xmlns="http://www.w3.org/2000/svg" viewBox="0 0 580.27 218.26" preserveAspectRatio="xMinYMin meet">
	<defs>
		<style>
			.cls-1{fill:#434444;}
			.cls-2{fill:#ff4438;}
		</style>
	</defs>
	<title>Visit Austin</title>
	<path class="cls-1" d="M469.21,137c1.66-4.1,1.68-7.93.05-11.38-3.8-8-15.64-11.88-20.1-13.32l-.73-.24a5.19,5.19,0,0,0-4.23.16,5.08,5.08,0,0,0-2.27,2.95s-2.22,5.76-5.47,13.88c-1,2.58-3.56,8.75-6.65,16.31-6.75,16.47-16,39-18.68,46.2-4,10.74-.39,15.37-.31,15.43,3,6.12,19.51,9.63,29.12,11.18a3.6,3.6,0,0,0,.56,0,3.45,3.45,0,0,0,2.32-.89,3.26,3.26,0,0,0,1.08-2.67h0c-.58-8.17,3.54-18.61,3.59-18.74C447.64,195.52,462.79,152.94,469.21,137Z"/>
	<path class="cls-1" d="M426.63,80.47c-2-11.71-22.47-18.92-26.45-20.23a27.56,27.56,0,0,0-2.91-.77,4,4,0,0,0-4.55,1.6c-.59,1-1.05,2,0,4.15a.83.83,0,0,1,0,.7c-.33.83-.92,2.34-1.62,4.14-.85,2.18-23.13,62.2-29.28,79S350.39,180.31,349,184.16c-4,10.74-.39,15.37-.32,15.43,3,6.14,22.15,17.3,30.31,18.62a3.6,3.6,0,0,0,.56,0,3.43,3.43,0,0,0,2.31-.89,3.27,3.27,0,0,0,1.09-2.67c-.58-8.17,3.54-18.61,3.59-18.73.29-.82,29.62-81.59,38.22-103.74C424.71,92.22,427.46,85.42,426.63,80.47Z"/>
	<path class="cls-1" d="M267.55,137c1.66-4.1,1.67-7.93,0-11.38-3.79-8-15.64-11.88-20.1-13.32l-.72-.24a5.22,5.22,0,0,0-4.24.16,5,5,0,0,0-2.26,2.95S238,121,234.8,129.09c-.71,1.76-2.11,5.2-3.9,9.58-12.18,25.75-24.69,42-30.71,49.05,4.56-12.74,14-39,18.77-50.68a13.31,13.31,0,0,0-.08-11C216,120,208.2,114.76,195.67,110.64l-.3-.1a29,29,0,0,0-2.91-.78,4,4,0,0,0-4.55,1.61c-.6,1-1,2,0,4.14a.92.92,0,0,1,0,.71c-.34.83-.92,2.34-1.62,4.14-.86,2.19-1.88,4.81-2.83,7.19-2,4.93-8,21.58-13.33,36.27-3.42,9.46-6.66,18.4-8.21,22.54-4,10.74-.39,15.38-.32,15.43,2.13,4.42,10.59,9.58,17.2,12.65,2,.93,8.65,3.8,10.55,2.11a36.54,36.54,0,0,0,4.2-5.14l0,0c.41-.71,9.58-13,17.09-23-.43,1.12-.86,2.27-1.21,3.19-4,10.74-.39,15.37-.32,15.43,3,6.12,19.53,9.63,29.14,11.18a3.52,3.52,0,0,0,.56,0,3.43,3.43,0,0,0,2.31-.89,3.27,3.27,0,0,0,1.08-2.66c-.58-8.18,3.54-18.62,3.59-18.75C246,195.52,261.13,152.94,267.55,137Z"/>
	<path class="cls-1" d="M579,126.63c-4.74-9.71-20.87-14.6-21.68-14.84-6.21-2-9.76,1.17-9.9,1.3s-5.59,5.06-9.24,8.84c-1.62,1.67-8.72,12.46-11.67,15.74,1.77-4.42,5.29-12.7,5.29-13.52,0-7.76-18-13.69-23.95-15.64l-.38-.13c-.41-.13-1.09-.33-3-.76a4,4,0,0,0-4.55,1.6c-.59,1-1.05,2,0,4.16a.81.81,0,0,1,0,.69c-.33.83-.92,2.34-1.62,4.14-.85,2.19-1.87,4.81-2.83,7.2-2.31,5.79-11.36,30.17-18,48-2.62,7.08-4.82,13-5.95,16-4,10.73-.39,15.37-.32,15.43,3.34,6.91,21.71,10.35,27.25,11.23a3.41,3.41,0,0,0,3.94-3.6,41,41,0,0,1,3.08-17.14c1.17-2.75,6.77-14.43,6.82-14.53A403.84,403.84,0,0,1,543.91,129c-1.58,4.33-4.24,11.68-7.22,19.91-5.91,16.32-13.27,36.65-15.52,42.65-4,10.74-.39,15.37-.32,15.43,3,6.12,19.53,9.63,29.14,11.18a3.52,3.52,0,0,0,.56,0,3.43,3.43,0,0,0,2.31-.89,3.27,3.27,0,0,0,1.08-2.66c-.58-8.18,3.54-18.62,3.59-18.75.15-.43,15.3-43,21.72-58.91A12.33,12.33,0,0,0,579,126.63Z"/>
	<path class="cls-2" d="M451.18,99.86a17.64,17.64,0,0,0,9.09,9.88,17.1,17.1,0,0,0,7.07,1.51,20.83,20.83,0,0,0,7.46-1.45c8.09-3.07,13.31-9.39,16-19.32,1.43-5.3,6.17-22.84,7.39-26.14.81-2.19,3.94-1.15,4.08-1.1a56.53,56.53,0,0,0,25.4,1.84c4.7-.65,5.56-1.73,6.26-2.6l.18-.23c1.25-1.45,5-9.88,5.64-12,.46-1.62.25-2.8-.61-3.5-1.3-1.06-3.69-.49-5.35.33-15.46,6.5-30.2,7.12-33.84,6.61-2.66-.38-4.18,2.16-4.6,3.51-2.88,7-6.05,14.78-8.89,21.79-5.41-6.29-13.63-7.35-22.23-2.79C453.19,82,448,91.55,451.18,99.86Z"/>
	<path class="cls-1" d="M233.94,44.22c-1.07,1.48-2.29,3.43-3.28,5.07a47.8,47.8,0,0,0-.29-4.95l-1.74-13.62h-9.08L224.65,67h2.11l26.69-36.29h-9.69Z"/>
	<polygon class="cls-1" points="253.74 66.71 262.79 66.71 274.43 30.72 265.38 30.72 253.74 66.71"/>
	<path class="cls-1" d="M297.26,38.25a3.79,3.79,0,0,1,3.53,2.1l.6.88,7.16-5.41L308,35c-2-3.12-5.25-4.71-9.57-4.71-7,0-12.15,4-13.06,10.26-.66,4.57.91,7.75,5.42,11l1.47,1.05c2.9,2.08,3.35,2.62,3.17,3.82-.23,1.63-2,2.73-4.4,2.73-3.07,0-4.73-2.16-5.59-4l-.49-1-7.65,4.68.29.78c1.42,3.76,5.85,7.55,12.57,7.55,7.91,0,13.44-4.2,14.42-11,.83-5.71-2.39-8.46-6.36-11.21l-1.51-1.06c-2.31-1.57-2.63-2.3-2.47-3.36A2.71,2.71,0,0,1,297.26,38.25Z"/>
	<polygon class="cls-1" points="314.63 66.71 323.68 66.71 335.31 30.72 326.27 30.72 314.63 66.71"/>
	<polygon class="cls-1" points="348.36 30.72 345.78 38.75 355.41 38.75 346.36 66.71 355.46 66.71 364.51 38.75 374.05 38.75 376.63 30.72 348.36 30.72"/>
	<path class="cls-1" d="M155.27,144.5l-.26-.35-.1-.1,0,0h0l0,0h0l-.1,0h0c-26.08-4.52-58.32-6.21-86.61-6.21-31,0-57.16,2-65.45,4.57h0a3.2,3.2,0,0,0-2,1.34A4.32,4.32,0,0,0,0,146c0,3.68,2.82,9.23,5.94,14.24s6.55,9.38,8,10.62h0a4.23,4.23,0,0,0,3.63.84l.07,0c3.12-1.29,11.05-2.94,21.4-4.65,31.08-5.14,84.34-10.94,98.94-10.94a13.13,13.13,0,0,1,3.42.26l.17,0c2.86-.06,4.82-.19,6.06-.32.62-.06,1.07-.11,1.36-.16l.32,0h.16l.05,0h0c.37-.16,2.57-1.32,4.83-5.77a9.38,9.38,0,0,0,1.23-4.09A3,3,0,0,0,155.27,144.5Z"/>
	<path class="cls-1" d="M101.31,181.92c-4,9.65-.71,15.38-.34,16.44,3.16,6.55,24.39,18.44,33.09,19.84a2.94,2.94,0,0,0,.59.05,3.71,3.71,0,0,0,2.47-.94,7.56,7.56,0,0,0,1.16-2.91c.31-1.54-.16-8,3.82-19.91.25-.76,23.2-65.74,35.41-98.31h-.08l27-73a12.9,12.9,0,0,0-.08-10.68C201.53,6.53,198,5,185.74,1c0,0-1.28-.42-3.13-.85a3.89,3.89,0,0,0-4.43,1.56c-.58,1-1,2,0,4C158.75,30,27.92,193.19,24.77,196.5c-2.8,2.93-5.25,5.05-17.2,13.69-2.07,1.5-2.81,3.64-1.76,5.09,1.63,2.24,7.41,3,14.38,3,13.73,0,18.37-3.76,25.3-11.93,2.7-3.18,18.49-22.24,38.44-47.19l16-20c10.37-13,21.26-26.69,31.77-39.91Z"/>
	<path class="cls-1" d="M339.57,102.13c-.85-.49-12.54-6.82-30.59,1.22a41.41,41.41,0,0,0-21.21,22.21c-4.43,10.95-4.24,23.26.57,35.64-3.22,1.89-19.75,12.27-22,27.12-1.14,7.61,1.76,15.1,8.57,22.3.43.4,1.19,1.1,1.8,1.56a33.22,33.22,0,0,0,18.87,6.06h1c11,0,25.71-3.23,32.41-12.47,4.69-6.45,5.15-15.05,1.34-25.59-.2-.44-19.24-43.52-9.29-58,.29-.45,7.06-10.9,17.3-6.31.05,0,5.12,2.71,6.46,6.35.12.33.24.68.35,1,.57,1.68,1.2,3.59,2.7,4.41.78.43,2.11,1.15,3.34.47,1.39-.78,2.12-3.1,2.29-7.3C353.86,112.3,349.69,106.69,339.57,102.13ZM294,191.86v0c0,.06-1.88,6.58-7.63,8.39l-.16,0c-1.17-.78-5.34-4.51-2-16.1,0-.08,3-8.27,8-9.59C293.18,176.8,296.26,184.62,294,191.86Z"/>
	<path class="cls-1" d="M425.5,91.83c6.7-.78,11.41-1.4,13.92-1.73,1.07-.14,1.73-.23,2-.25,2.34-.24,3.1-.39,4-1s2.44-3.39,3.42-5.7c.56-1.33.61-2.3.16-3a1.57,1.57,0,0,0-1.25-.68h0c-.19,0-17.52,1-21,1.21l-40.52,2.51c-23.32,2.2-39.26,5-39.93,5.1a1.6,1.6,0,0,0-1.31,1.19c-.71,2.38,2.54,8.25,4.9,10.44,1,.9,1.83,1.22,2.52,1,.46-.15,4.58-.81,27.1-3.56Z"/>
</svg>
